<?xml version="1.0" standalone="no"?>
<!DOCTYPE svg PUBLIC "-//W3C//DTD SVG 20010904//EN"
 "http://www.w3.org/TR/2001/REC-SVG-20010904/DTD/svg10.dtd">
<svg version="1.0" xmlns="http://www.w3.org/2000/svg"
 width="1915.000000pt" height="821.000000pt" viewBox="0 0 1915.000000 821.000000"
 preserveAspectRatio="xMidYMid meet">

<g transform="translate(0.000000,821.000000) scale(0.100000,-0.100000)"
fill="#000000" stroke="none">
<path d="M8853 7323 c-3 -10 -67 -166 -140 -348 -74 -181 -239 -593 -368 -915
-128 -322 -309 -769 -400 -995 -92 -225 -221 -543 -287 -705 -253 -624 -319
-765 -408 -882 -117 -156 -246 -225 -478 -257 -62 -9 -114 -20 -115 -26 -1 -7
232 -11 681 -13 577 -2 682 0 682 12 0 10 -20 16 -67 20 -219 21 -363 97 -393
206 -18 64 -11 189 15 292 57 225 308 894 792 2113 52 132 133 339 180 460 47
121 89 231 95 245 l10 25 13 -25 c7 -14 59 -131 115 -260 406 -936 755 -1705
772 -1704 7 1 87 24 178 52 91 28 197 59 235 69 49 14 69 23 67 33 -2 8 -64
150 -139 315 -205 456 -401 895 -660 1485 -129 294 -262 595 -294 668 -32 74
-59 138 -59 143 0 16 -20 10 -27 -8z"/>
<path d="M9763 6043 c9 -2 23 -2 30 0 6 3 -1 5 -18 5 -16 0 -22 -2 -12 -5z"/>
<path d="M9823 6033 c9 -2 23 -2 30 0 6 3 -1 5 -18 5 -16 0 -22 -2 -12 -5z"/>
<path d="M10090 4282 c-41 -13 -345 -143 -353 -151 -4 -4 24 -89 64 -187 122
-304 169 -462 169 -564 0 -48 -22 -105 -53 -139 l-22 -24 35 18 c81 41 118 75
147 132 l28 58 3 355 c4 452 2 508 -18 502z"/>
<path d="M8097 4105 c-53 -36 -97 -68 -97 -70 0 -5 175 109 195 126 23 22 -8
4 -98 -56z"/>
<path d="M8170 4055 c-14 -8 -20 -14 -15 -14 6 0 21 6 35 14 14 8 21 14 15 14
-5 0 -21 -6 -35 -14z"/>
<path d="M7975 3970 c-44 -21 -77 -39 -74 -39 4 -1 44 17 90 38 46 22 80 40
74 40 -5 0 -46 -18 -90 -39z"/>
<path d="M7895 3964 l-30 -26 33 22 c17 12 32 23 32 26 0 7 -4 5 -35 -22z"/>
<path d="M7785 3884 c-21 -17 -23 -22 -8 -14 12 5 25 15 28 20 4 6 11 7 17 4
7 -4 8 -2 4 4 -9 15 -6 16 -41 -14z"/>
<path d="M12222 3825 c-6 -13 -7 -27 -3 -30 5 -2 11 8 14 23 7 35 3 38 -11 7z"/>
<path d="M12194 3779 c-4 -7 -3 -9 4 -5 5 3 13 0 15 -6 4 -9 6 -10 6 -1 1 17
-16 25 -25 12z"/>
<path d="M12139 3694 c-17 -25 -45 -62 -62 -82 l-31 -37 39 35 c38 34 38 34
17 5 -11 -16 -44 -52 -74 -80 -52 -49 -52 -49 -13 -6 36 40 33 39 -27 -14 -38
-32 -68 -61 -68 -64 0 -2 12 6 27 20 l26 24 -19 -26 c-10 -15 -32 -34 -49 -44
l-30 -17 20 23 20 22 -27 -18 c-15 -9 -26 -21 -23 -25 3 -5 0 -12 -6 -16 -8
-4 -9 -3 -5 4 10 17 0 15 -30 -4 -18 -12 -22 -20 -14 -29 8 -9 5 -14 -12 -18
-13 -2 -32 -8 -43 -11 -11 -4 -8 0 8 9 43 25 32 26 -22 2 -27 -12 -47 -24 -46
-27 2 -3 -4 -6 -13 -7 -9 0 -59 -12 -111 -26 -89 -23 -92 -25 -54 -28 23 -3
39 -1 37 3 -3 5 -1 8 5 8 25 0 19 -21 -8 -26 -17 -4 -31 -10 -31 -14 0 -19
-62 -24 -315 -30 -217 -4 -157 -6 301 -8 l572 -2 67 271 c37 148 64 273 61
276 -3 4 -6 -1 -6 -10 0 -10 -5 -14 -15 -11 -8 4 -12 10 -9 15 3 5 3 9 0 9 -3
0 -19 -21 -37 -46z m11 -13 c-29 -42 -36 -39 -8 3 13 19 24 33 26 31 3 -2 -6
-18 -18 -34z m-315 -301 c-3 -5 -12 -10 -18 -10 -7 0 -6 4 3 10 19 12 23 12
15 0z m-198 -96 c-3 -3 -12 -4 -19 -1 -8 3 -5 6 6 6 11 1 17 -2 13 -5z m-40
-10 c-3 -3 -12 -4 -19 -1 -8 3 -5 6 6 6 11 1 17 -2 13 -5z"/>
<path d="M11433 3253 c9 -2 23 -2 30 0 6 3 -1 5 -18 5 -16 0 -22 -2 -12 -5z"/>
<path d="M11348 3243 c12 -2 30 -2 40 0 9 3 -1 5 -23 4 -22 0 -30 -2 -17 -4z"/>
<path d="M10528 3193 c57 -2 147 -2 200 0 53 1 7 3 -103 3 -110 0 -154 -2 -97
-3z"/>
<path d="M6323 2566 c-87 -23 -112 -36 -72 -36 14 0 35 -7 47 -16 l22 -15 0
-363 c0 -398 1 -390 -61 -412 -29 -11 -12 -12 121 -12 117 0 146 2 120 9 -73
20 -70 4 -70 460 0 321 -3 409 -12 408 -7 0 -50 -11 -95 -23z"/>
<path d="M6746 2564 c-95 -25 -114 -34 -75 -34 14 0 35 -7 47 -16 l22 -15 0
-368 0 -369 48 -20 c78 -34 138 -45 215 -40 122 8 214 64 264 162 35 68 44
195 19 260 -38 100 -103 154 -202 169 -56 9 -130 -14 -187 -58 l-47 -36 0 196
c0 107 -3 195 -7 194 -5 0 -48 -12 -97 -25z m312 -349 c80 -34 123 -103 130
-211 8 -124 -40 -232 -118 -264 -18 -7 -55 -11 -90 -8 -52 4 -66 9 -93 36
l-32 32 -3 176 c-4 198 -3 200 73 235 49 23 84 24 133 4z"/>
<path d="M11208 2566 c-94 -23 -119 -36 -72 -36 61 0 71 -27 66 -172 l-4 -107
-37 18 c-57 30 -120 35 -190 17 -148 -38 -233 -151 -233 -309 0 -123 68 -225
173 -262 83 -30 184 -12 256 45 36 28 43 25 43 -21 0 -34 3 -39 18 -35 9 3 50
14 91 25 41 11 76 22 78 25 2 2 -11 6 -30 10 -23 4 -38 14 -45 32 -9 17 -12
140 -12 409 0 212 -3 384 -7 384 -5 -1 -47 -11 -95 -23z m-68 -326 c58 -41 70
-85 70 -256 l0 -150 -27 -26 c-90 -86 -232 -53 -296 67 -19 34 -22 57 -22 145
0 136 25 189 110 235 42 23 122 15 165 -15z"/>
<path d="M5561 2548 c-61 -161 -317 -744 -341 -778 -11 -16 -39 -35 -63 -43
-41 -15 -38 -15 103 -15 111 0 136 2 106 9 -47 11 -76 35 -76 62 0 20 65 182
83 205 7 9 56 12 182 12 l172 0 47 -104 c25 -57 46 -110 46 -118 0 -21 -25
-41 -69 -54 -30 -10 -5 -12 149 -12 156 0 180 1 152 12 -19 6 -44 21 -55 33
-19 17 -170 331 -348 721 -31 68 -47 92 -61 92 -10 0 -22 -10 -27 -22z m65
-333 c46 -95 84 -176 84 -180 0 -3 -72 -5 -161 -5 -88 0 -159 4 -157 8 110
271 144 352 146 352 2 0 41 -79 88 -175z"/>
<path d="M9800 2560 c0 -5 13 -10 29 -10 17 0 42 -10 58 -24 l28 -24 3 -339
c3 -404 2 -409 -73 -435 -49 -17 -42 -17 312 -18 l361 0 22 93 c11 50 23 100
26 110 9 31 -12 18 -24 -15 -17 -48 -68 -106 -115 -130 -36 -19 -62 -23 -188
-26 -201 -6 -190 -18 -187 216 l3 177 90 3 c50 2 107 -2 127 -8 46 -13 88 -62
88 -101 0 -16 5 -29 10 -29 6 0 10 57 10 150 0 143 -11 193 -24 112 -3 -22
-16 -48 -32 -63 -24 -22 -34 -24 -150 -27 l-124 -4 2 184 3 183 124 3 c166 4
220 -8 264 -57 19 -22 38 -53 42 -70 11 -50 29 -38 21 15 -3 26 -6 69 -6 95
l0 49 -350 0 c-227 0 -350 -4 -350 -10z"/>
<path d="M11652 2557 c-37 -44 -8 -117 47 -117 63 0 97 73 53 113 -22 20 -85
22 -100 4z"/>
<path d="M9007 2406 c-36 -57 -95 -110 -141 -127 -20 -7 -36 -16 -36 -20 0 -5
24 -9 53 -11 l52 -3 5 -241 c5 -259 6 -261 61 -290 33 -16 96 -18 135 -4 28
11 99 79 91 87 -3 2 -20 -5 -38 -16 -61 -38 -123 -21 -140 38 -6 21 -9 116 -7
231 l3 195 83 3 c73 2 82 5 82 22 0 17 -9 20 -82 22 l-83 3 -5 78 -5 77 -28
-44z"/>
<path d="M7712 2290 c-81 -17 -155 -79 -194 -165 -33 -72 -32 -198 1 -273 42
-94 131 -151 237 -152 114 0 205 53 254 151 21 40 19 72 -2 34 -21 -37 -75
-81 -115 -93 -156 -47 -293 57 -293 221 l0 57 211 0 211 0 -7 37 c-8 45 -36
102 -62 125 -52 47 -163 74 -241 58z m107 -38 c40 -20 71 -73 71 -119 l0 -33
-145 0 c-165 0 -164 -1 -122 80 41 82 121 111 196 72z"/>
<path d="M8303 2270 c-100 -28 -123 -40 -76 -40 60 0 63 -13 63 -252 0 -237 1
-233 -65 -256 -23 -8 4 -10 125 -10 136 0 150 1 115 12 -60 18 -65 35 -65 232
l0 171 30 41 c39 55 69 62 120 28 45 -30 72 -33 94 -10 33 32 10 96 -39 108
-47 12 -104 -12 -156 -66 l-48 -50 -3 59 -3 58 -92 -25z"/>
<path d="M11670 2272 c-116 -33 -120 -35 -85 -40 64 -8 65 -12 65 -252 0 -239
1 -235 -65 -258 -23 -8 3 -10 120 -10 106 0 141 2 119 9 -58 17 -59 19 -64
309 l-5 266 -85 -24z"/>
<path d="M12175 2291 c-94 -23 -140 -81 -133 -167 6 -73 34 -101 171 -171 137
-70 161 -108 117 -180 -59 -97 -233 -41 -271 87 -7 22 -15 40 -18 40 -3 0 -6
-43 -6 -95 0 -52 1 -95 3 -95 2 0 11 4 21 9 12 7 37 5 77 -6 161 -42 294 26
294 150 0 88 -32 124 -179 197 -46 23 -94 52 -107 65 -34 34 -32 79 5 116 24
24 38 29 78 29 31 0 59 -7 77 -20 33 -21 76 -85 76 -113 0 -10 5 -15 11 -12 9
6 10 165 1 165 -2 0 -12 -5 -22 -10 -13 -7 -36 -6 -76 5 -63 16 -73 17 -119 6z"/>
<path d="M12861 2290 c-137 -29 -235 -151 -235 -295 1 -215 210 -352 418 -275
110 42 176 136 184 263 5 87 -9 138 -58 205 -55 76 -200 124 -309 102z m140
-43 c77 -52 114 -151 107 -291 -3 -67 -10 -102 -26 -132 -82 -159 -262 -125
-317 59 -18 59 -20 195 -4 252 33 117 150 172 240 112z"/>
<path d="M13510 2273 c-41 -13 -83 -23 -92 -23 -10 0 -18 -4 -18 -10 0 -5 11
-10 23 -10 13 0 31 -8 40 -18 15 -16 17 -47 17 -233 0 -118 -4 -219 -8 -226
-4 -7 -23 -19 -42 -27 -33 -14 -28 -15 110 -15 129 0 141 2 110 13 -55 20 -60
40 -60 241 0 204 3 214 74 246 63 29 119 25 158 -10 l33 -29 3 -196 c3 -214 0
-229 -51 -251 -29 -13 -19 -14 108 -14 119 0 135 2 108 12 -17 7 -35 16 -40
20 -4 5 -10 106 -13 225 -5 201 -7 220 -27 252 -58 94 -188 102 -293 19 -27
-22 -52 -39 -54 -39 -3 0 -6 22 -8 48 l-3 48 -75 -23z"/>
<path d="M6788 1233 c117 -2 306 -2 420 0 114 1 18 2 -213 2 -231 0 -324 -1
-207 -2z"/>
<path d="M7583 1233 c53 -2 141 -2 195 0 53 1 9 3 -98 3 -107 0 -151 -2 -97
-3z"/>
<path d="M8603 1233 c82 -2 212 -2 290 0 78 1 12 3 -148 3 -159 0 -223 -2
-142 -3z"/>
<path d="M10148 1233 c100 -2 264 -2 365 0 100 1 18 2 -183 2 -201 0 -283 -1
-182 -2z"/>
<path d="M12193 1233 c9 -2 23 -2 30 0 6 3 -1 5 -18 5 -16 0 -22 -2 -12 -5z"/>
<path d="M12488 1233 c6 -2 18 -2 25 0 6 3 1 5 -13 5 -14 0 -19 -2 -12 -5z"/>
</g>
</svg>
